<?xml version="1.0" encoding="UTF-8"?>
<svg version="1.1" xmlns="http://www.w3.org/2000/svg" width="431" height="426">
<path d="M0 0 C142.23 0 284.46 0 431 0 C431 140.58 431 281.16 431 426 C288.77 426 146.54 426 0 426 C0 285.42 0 144.84 0 0 Z " fill="#FEFEFD" transform="translate(0,0)"/>
<path d="M0 0 C8.93299168 6.37854905 15.01164305 15.76995984 17.43359375 26.4609375 C18.82776314 38.10297057 16.05576042 48.83117294 9.203125 58.35546875 C4.28797011 64.20374355 -0.25490464 68.15951601 -7.56640625 70.4609375 C-7.25525879 71.38390625 -6.94411133 72.306875 -6.62353516 73.2578125 C-0.88354934 90.3025318 4.79332695 107.36446314 10.18359375 124.5234375 C10.40150574 125.21219971 10.61941772 125.90096191 10.84393311 126.6105957 C11.45663233 128.55012054 12.06247368 130.49180781 12.66796875 132.43359375 C13.01053711 133.52937744 13.35310547 134.62516113 13.70605469 135.75415039 C14.43359375 138.4609375 14.43359375 138.4609375 14.43359375 141.4609375 C38.52359375 141.4609375 62.61359375 141.4609375 87.43359375 141.4609375 C87.76359375 138.1609375 88.09359375 134.8609375 88.43359375 131.4609375 C91.81027378 120.89613175 99.51402563 113.07695128 108.94140625 107.65234375 C118.22908772 103.21230794 129.88951713 102.95266578 139.87109375 105.5234375 C151.11847314 109.64811313 159.73564301 118.33674157 164.93359375 129.0234375 C168.34991686 138.69285201 167.74749836 150.7024809 163.6875 160.0390625 C157.59535333 171.80582553 149.309568 178.91494152 136.6484375 183.04296875 C124.31757246 185.36995739 113.93326009 183.19633275 103.55859375 176.3359375 C102.85992187 175.83835938 102.16125 175.34078125 101.44140625 174.828125 C99.49805659 173.50483243 97.54304955 172.49011456 95.43359375 171.4609375 C84.57413434 179.3983586 73.79548066 187.43148868 63.10986328 195.6015625 C55.2557704 201.60581563 47.35461973 207.54537637 39.43359375 213.4609375 C40.99633579 221.26521464 43.33253766 228.72271314 45.78515625 236.2890625 C46.20883728 237.60925811 46.63195341 238.92963513 47.05453491 240.25018311 C48.83697398 245.81714948 50.62868459 251.38110844 52.42578125 256.94335938 C53.52997781 260.3623227 54.62711367 263.78348719 55.72001266 267.20607758 C56.1359037 268.5034833 56.55453465 269.80001415 56.97600174 271.0956192 C57.56431163 272.90439262 58.14295779 274.71630053 58.72119141 276.52832031 C59.05269196 277.55596497 59.3841925 278.58360962 59.72573853 279.64239502 C60.41261269 282.37739499 60.57458523 284.65598295 60.43359375 287.4609375 C61.23796875 287.2959375 62.04234375 287.1309375 62.87109375 286.9609375 C74.288421 285.35850561 84.90846307 287.00636331 94.3984375 293.86328125 C95.07003906 294.39050781 95.74164063 294.91773438 96.43359375 295.4609375 C97.26761719 296.07839844 98.10164063 296.69585937 98.9609375 297.33203125 C106.52344033 303.84319087 110.67009467 313.53218333 111.74609375 323.296875 C112.16411762 333.25106834 109.79009389 343.60879027 103.43359375 351.4609375 C103.02625 352.02039063 102.61890625 352.57984375 102.19921875 353.15625 C95.47262457 361.88570649 86.09674084 365.74519176 75.43359375 367.4609375 C64.46094914 368.81579148 54.38607672 365.02237491 45.68359375 358.42578125 C37.40003027 351.19204439 31.93081792 341.4953645 30.98828125 330.421875 C30.66404315 323.28947671 31.2856064 316.98656031 34.4609375 310.4765625 C35.42746028 308.47364783 35.92803097 306.61808031 36.43359375 304.4609375 C35.89581299 304.05891113 35.35803223 303.65688477 34.80395508 303.24267578 C25.47112698 296.26272006 16.15233178 289.27074269 6.93359375 282.140625 C1.44045017 277.91487539 -4.12400564 273.7822844 -9.67773438 269.63671875 C-13.69102494 266.63701298 -17.6826724 263.62840896 -21.56640625 260.4609375 C-24.39390589 261.79535121 -26.86251193 263.29863101 -29.375 265.15625 C-30.11129639 265.69910645 -30.84759277 266.24196289 -31.60620117 266.80126953 C-32.79306519 267.68468018 -32.79306519 267.68468018 -34.00390625 268.5859375 C-34.83575439 269.20194824 -35.66760254 269.81795898 -36.5246582 270.45263672 C-44.56983717 276.42785584 -52.53516576 282.50703486 -60.49609375 288.59375 C-67.48278081 293.931803 -74.52170033 299.19982756 -81.56640625 304.4609375 C-81.20546875 305.2859375 -80.84453125 306.1109375 -80.47265625 306.9609375 C-75.53134363 319.25931558 -74.35071561 331.09376673 -79.23828125 343.77734375 C-84.88371831 355.18444745 -93.75149042 362.0266926 -105.53125 366.1484375 C-115.7185921 369.148391 -125.66362746 367.73896944 -135.1328125 363.2421875 C-146.68585413 356.89242416 -152.30026909 347.88745228 -156.17578125 335.515625 C-158.50547692 323.2614258 -155.76847695 312.86862367 -148.94140625 302.7109375 C-141.82470589 293.52344772 -132.98709009 288.54086337 -121.56640625 286.4609375 C-116.56102084 286.07232062 -111.57785349 286.21140486 -106.56640625 286.4609375 C-106.3190271 285.58248169 -106.3190271 285.58248169 -106.06665039 284.6862793 C-102.64032603 272.58242879 -99.01708395 260.57160968 -95.00390625 248.6484375 C-94.62516357 247.52131348 -94.2464209 246.39418945 -93.85620117 245.23291016 C-93.11307808 243.02393782 -92.36951927 240.81511201 -91.62548828 238.60644531 C-90.04676003 233.91757144 -88.47577779 229.22703066 -86.94140625 224.5234375 C-86.68157959 223.75475342 -86.42175293 222.98606934 -86.15405273 222.1940918 C-84.97446235 218.53915835 -84.24786996 216.10478118 -85.56640625 212.4609375 C-87.67115522 210.47405878 -87.67115522 210.47405878 -90.44140625 208.5859375 C-91.54038268 207.79038958 -92.63933968 206.99481482 -93.73828125 206.19921875 C-94.34736328 205.76432129 -94.95644531 205.32942383 -95.58398438 204.88134766 C-99.31032872 202.21141275 -102.99892152 199.48990362 -106.69140625 196.7734375 C-107.89518921 195.89026855 -107.89518921 195.89026855 -109.12329102 194.98925781 C-115.71102838 190.13809164 -122.1827916 185.14853843 -128.60400391 180.0793457 C-132.4920054 177.02075449 -136.40601801 174.13873841 -140.56640625 171.4609375 C-143.49997252 172.8422131 -146.05309238 174.45699072 -148.69140625 176.3359375 C-159.025717 183.1475672 -169.25372604 185.59654709 -181.56640625 183.4609375 C-192.4179671 180.2888341 -200.94046342 174.00262612 -206.85546875 164.359375 C-212.31263147 154.19099267 -213.39137571 142.22148723 -210.76171875 131.0390625 C-206.53852207 119.79662167 -198.36885788 111.54444415 -187.56640625 106.4609375 C-178.66922486 102.80628792 -166.67086801 103.01729178 -157.56640625 105.9609375 C-145.1602732 111.3921939 -138.20566653 120.80860437 -133.23046875 133.00390625 C-132.56640625 135.4609375 -132.56640625 135.4609375 -132.56640625 141.4609375 C-108.47640625 141.4609375 -84.38640625 141.4609375 -59.56640625 141.4609375 C-58.90640625 138.1609375 -58.24640625 134.8609375 -57.56640625 131.4609375 C-56.68137082 128.43683266 -55.76725509 125.45897698 -54.7734375 122.47265625 C-54.50626923 121.65456985 -54.23910095 120.83648346 -53.96383667 119.99360657 C-53.10768889 117.37670995 -52.24348452 114.76255949 -51.37890625 112.1484375 C-50.78901231 110.35106141 -50.19957692 108.55353476 -49.6105957 106.75585938 C-47.93725212 101.6548786 -46.25362143 96.5573445 -44.56640625 91.4609375 C-44.34351929 90.78710022 -44.12063232 90.11326294 -43.89099121 89.41900635 C-41.79864917 83.09428624 -39.6939389 76.7739071 -37.56640625 70.4609375 C-38.31148437 70.18378906 -39.0565625 69.90664062 -39.82421875 69.62109375 C-49.32873578 65.59995193 -56.08488823 57.56777467 -59.94140625 48.1484375 C-63.63822961 38.16701442 -64.0311169 28.04509384 -59.88671875 18.08984375 C-54.08477909 6.53746093 -45.78779358 -1.19264177 -33.56640625 -5.5390625 C-21.92843599 -9.15759107 -10.14210389 -6.08217493 0 0 Z " fill="#C5C9CF" transform="translate(237.56640625,32.5390625)"/>
<path d="M0 0 C22.44 0 44.88 0 68 0 C71.3103125 10.085625 71.3103125 10.085625 74.6875 20.375 C75.37287842 22.45603027 76.05825684 24.53706055 76.7644043 26.68115234 C85.89598802 54.54157025 85.89598802 54.54157025 88 66 C78.04749286 73.83177591 68.01703753 81.53187904 57.78930664 89.00146484 C51.98095277 93.24977109 46.29180513 97.62499961 40.6640625 102.109375 C35.84884346 105.52662722 35.84884346 105.52662722 33 106 C30.37230628 104.49033943 28.31535371 103.03231051 26 101.125 C24.57316499 100.00228851 23.14606801 98.87990989 21.71875 97.7578125 C20.95820313 97.14969727 20.19765625 96.54158203 19.4140625 95.91503906 C15.16173721 92.54173409 10.82430972 89.28013081 6.5 86 C4.72504072 84.64612131 2.9502994 83.29195682 1.17578125 81.9375 C-5.85157672 76.5833225 -12.92153038 71.28632526 -20 66 C-19.44691201 61.22661016 -18.46496133 57.10777868 -16.75 52.625 C-14.89126417 47.57684247 -13.23446014 42.54999299 -11.75 37.375 C-8.07409802 24.84351598 -3.99632463 12.43300996 0 0 Z " fill="#FDFEFE" transform="translate(181,179)"/>
<path d="M0 0 C1.41518553 1.03658423 2.81138125 2.09958726 4.1875 3.1875 C4.93257813 3.75855469 5.67765625 4.32960938 6.4453125 4.91796875 C10.67210814 8.34939962 12.98609376 10.72656253 14.1875 16.1875 C14.44144531 16.785625 14.69539063 17.38375 14.95703125 18 C19.15841663 28.1293675 18.40704525 40.40539665 14.515625 50.50390625 C8.87018794 61.91100995 0.00241583 68.7532551 -11.77734375 72.875 C-21.96468585 75.8749535 -31.90972121 74.46553194 -41.37890625 69.96875 C-52.93194788 63.61898666 -58.54636284 54.61401478 -62.421875 42.2421875 C-64.75157067 29.9879883 -62.0145707 19.59518617 -55.1875 9.4375 C-41.6982139 -7.9768454 -18.56598867 -11.93985133 0 0 Z " fill="#F5D672" transform="translate(143.8125,325.8125)"/>
<path d="M0 0 C0.67160156 0.52722656 1.34320313 1.05445313 2.03515625 1.59765625 C2.86917969 2.21511719 3.70320313 2.83257812 4.5625 3.46875 C12.12500283 9.97990962 16.27165717 19.66890208 17.34765625 29.43359375 C17.76568012 39.38778709 15.39165639 49.74550902 9.03515625 57.59765625 C8.6278125 58.15710938 8.22046875 58.7165625 7.80078125 59.29296875 C1.07418707 68.02242524 -8.30169666 71.88191051 -18.96484375 73.59765625 C-29.93748836 74.95251023 -40.01236078 71.15909366 -48.71484375 64.5625 C-56.99840723 57.32876314 -62.46761958 47.63208325 -63.41015625 36.55859375 C-63.77649211 28.60788751 -62.92039454 21.62428685 -58.96484375 14.59765625 C-58.52914063 13.8190625 -58.0934375 13.04046875 -57.64453125 12.23828125 C-51.7549807 2.64764702 -43.46912978 -3.89790109 -32.52734375 -6.65234375 C-20.9108964 -8.85272883 -9.682052 -6.99570231 0 0 Z " fill="#8BBAEB" transform="translate(331.96484375,326.40234375)"/>
<path d="M0 0 C8.93299168 6.37854905 15.01164305 15.76995984 17.43359375 26.4609375 C18.82658135 38.093102 16.06832911 48.85608964 9.19140625 58.359375 C4.05090879 64.50512529 -0.93182892 68.94685767 -8.81640625 70.890625 C-9.39390625 71.07882813 -9.97140625 71.26703125 -10.56640625 71.4609375 C-10.89640625 72.1209375 -11.22640625 72.7809375 -11.56640625 73.4609375 C-25.72133383 73.98899697 -37.13327702 73.99449427 -48.5 64.4375 C-57.33153569 55.98994413 -62.59507757 45.69270087 -62.87890625 33.3984375 C-62.75679229 22.4814497 -58.67226695 13.67402304 -51.56640625 5.4609375 C-36.82281239 -8.60881752 -17.52098619 -10.50725808 0 0 Z " fill="#B5BDC9" transform="translate(237.56640625,32.5390625)"/>
<path d="M0 0 C6.99732983 4.52528046 12.05488465 9.66455115 16 17 C16.4125 17.73605469 16.825 18.47210938 17.25 19.23046875 C21.72750624 28.51196606 21.30677594 39.71177246 18.4375 49.4375 C14.12729815 60.58353075 6.15043796 67.67761133 -4.375 72.875 C-14.51881481 76.77155355 -25.55674715 76.95823068 -35.55859375 72.5847168 C-45.54140832 67.64638449 -53.04483271 60.61237955 -57 50 C-60.58326312 39.22415053 -60.70706339 27.02566492 -55.671875 16.71484375 C-44.1677977 -1.96584252 -20.13324861 -11.36296225 0 0 Z " fill="#91CD9E" transform="translate(85,141)"/>
<path d="M0 0 C8.41552881 5.39816069 15.46288797 13.09693375 18.83203125 22.6328125 C21.53696617 35.44744167 19.50846535 47.15599311 12.76953125 58.34375 C6.85389792 66.65239079 -2.47395821 72.69360163 -12.54296875 74.59375 C-26.30659872 75.52044032 -36.51193133 73.4228145 -47.54296875 64.59375 C-54.735247 57.78591424 -59.02063216 48.86857263 -59.84375 38.98046875 C-59.88654657 25.47101837 -57.57555426 16.88963418 -48.54296875 6.59375 C-35.58576743 -5.99058222 -15.9701196 -8.83140254 0 0 Z " fill="#F0807E" transform="translate(384.54296875,141.40625)"/>
<path d="M0 0 C0.23812912 0.78027557 0.47625824 1.56055115 0.72160339 2.36447144 C3.20570721 10.47481091 5.7673399 18.55768551 8.36328125 26.6328125 C9.38337536 29.82424442 10.40257685 33.01595783 11.42106342 36.20790291 C12.47789193 39.51828801 13.53801992 42.82755231 14.60473633 46.13476562 C15.84643496 49.98522912 17.07392569 53.84009394 18.30078125 57.6953125 C18.68712234 58.88585236 19.07346344 60.07639221 19.47151184 61.30300903 C19.81905014 62.40200531 20.16658844 63.50100159 20.5246582 64.63330078 C20.98954399 66.08339035 20.98954399 66.08339035 21.46382141 67.56277466 C22 70 22 70 21 73 C18.85546875 74.46484375 18.85546875 74.46484375 16.1875 75.9375 C12.5691126 77.94177663 9.81719495 79.95953085 7 83 C4.28699312 81.71667049 1.92020773 80.30964589 -0.46875 78.49609375 C-1.11545654 78.00786133 -1.76216309 77.51962891 -2.4284668 77.01660156 C-3.11207275 76.49549805 -3.79567871 75.97439453 -4.5 75.4375 C-5.95439368 74.33719543 -7.40882097 73.23693528 -8.86328125 72.13671875 C-9.57436035 71.59708496 -10.28543945 71.05745117 -11.01806641 70.50146484 C-13.56523791 68.57178946 -16.12617241 66.66083169 -18.6875 64.75 C-24.43333846 60.43863983 -30.15604227 56.09693727 -35.875 51.75 C-36.77951904 51.06389648 -37.68403809 50.37779297 -38.6159668 49.67089844 C-43.16476112 46.20845278 -47.64723624 42.7063137 -52 39 C-48.64876131 35.53299124 -45.21045652 32.48210212 -41.375 29.5625 C-40.82650391 29.14419922 -40.27800781 28.72589844 -39.71289062 28.29492188 C-33.87523821 23.86393269 -27.96136381 19.53474834 -22.04858398 15.20483398 C-16.06394072 10.81432433 -10.18843786 6.30472401 -4.37109375 1.6953125 C-2 0 -2 0 0 0 Z " fill="#FDFDFD" transform="translate(272,250)"/>
<path d="M0 0 C4.45626269 1.47164148 7.72838442 3.94249526 11.3125 6.875 C12.55995253 7.87525306 13.8087002 8.8738926 15.05859375 9.87109375 C15.70554199 10.38784668 16.35249023 10.90459961 17.01904297 11.43701172 C20.26112865 13.99503889 23.56580111 16.46728729 26.875 18.9375 C27.53024658 19.42903564 28.18549316 19.92057129 28.8605957 20.42700195 C32.41094878 23.08577105 35.97976276 25.71606044 39.5703125 28.3203125 C40.31168457 28.86308838 41.05305664 29.40586426 41.81689453 29.96508789 C43.24687972 31.01143022 44.68258756 32.05000651 46.12451172 33.07983398 C47.80495475 34.31465689 49.41088281 35.64967302 51 37 C51 40 51 40 49.53808594 41.48291016 C48.86036133 41.99644043 48.18263672 42.5099707 47.484375 43.0390625 C46.73422119 43.61462891 45.98406738 44.19019531 45.21118164 44.78320312 C44.3989917 45.39099609 43.58680176 45.99878906 42.75 46.625 C41.92169678 47.25599609 41.09339355 47.88699219 40.23999023 48.53710938 C37.83332798 50.36709986 35.41776111 52.18471287 33 54 C31.93306087 54.80919371 30.86656476 55.61897234 29.80078125 56.4296875 C25.32739101 59.81185131 20.81481314 63.13767207 16.2890625 66.44921875 C15.44851318 67.06539063 14.60796387 67.6815625 13.74194336 68.31640625 C12.08327933 69.53135427 10.42273869 70.74374598 8.76000977 71.953125 C3.98560794 75.44894471 -0.55693395 79.09081372 -5 83 C-7.93657219 81.57620743 -10.37651609 80.02850211 -12.9375 78 C-15.8484605 75.76917046 -18.46102751 74.1059289 -22 73 C-20.6305604 64.83191837 -18.26068992 57.11704745 -15.68359375 49.2578125 C-15.26233641 47.95906356 -14.84161569 46.66014045 -14.42140198 45.36105347 C-13.32352859 41.97123309 -12.21924461 38.58353837 -11.11328125 35.1963501 C-9.33836351 29.75601561 -7.57416782 24.31219039 -5.80845833 18.86886215 C-5.19359113 16.97608789 -4.57623943 15.08412129 -3.95884705 13.19216919 C-3.58498367 12.04352386 -3.2111203 10.89487854 -2.82592773 9.71142578 C-2.4966478 8.70234161 -2.16736786 7.69325745 -1.82810974 6.65359497 C-1.13901963 4.44547453 -0.52863971 2.25089432 0 0 Z " fill="#FDFDFD" transform="translate(158,250)"/>
<path d="M0 0 C6.6 0 13.2 0 20 0 C25.8791122 17.45827734 31.74522869 34.9193701 37.25 52.5 C37.63212646 53.70809326 38.01425293 54.91618652 38.40795898 56.16088867 C38.75286377 57.27310791 39.09776855 58.38532715 39.453125 59.53125 C39.75379883 60.49611328 40.05447266 61.46097656 40.36425781 62.45507812 C41 65 41 65 41 69 C20.54 69 0.08 69 -21 69 C-20.32713832 63.61710652 -19.76895914 59.67281311 -18.15820312 54.70751953 C-17.78111206 53.5333548 -17.404021 52.35919006 -17.01550293 51.14944458 C-16.60819946 49.90645599 -16.200896 48.66346741 -15.78125 47.3828125 C-15.35851033 46.07643057 -14.93636033 44.7698577 -14.51477051 43.46310425 C-13.63475609 40.74025994 -12.75019293 38.01895546 -11.86181641 35.29882812 C-10.72253233 31.81040349 -9.59092455 28.31955243 -8.46219635 24.82769966 C-7.38343019 21.49113042 -6.30139739 18.15562406 -5.21875 14.8203125 C-4.81144653 13.56517853 -4.40414307 12.31004456 -3.98449707 11.01687622 C-3.60740601 9.86162445 -3.23031494 8.70637268 -2.84179688 7.51611328 C-2.50950073 6.49655548 -2.17720459 5.47699768 -1.83483887 4.42654419 C-1 2 -1 2 0 0 Z " fill="#FDFDFD" transform="translate(205,105)"/>
<path d="M0 0 C23.43 0 46.86 0 71 0 C67.62585034 12.37188209 67.62585034 12.37188209 66.23828125 16.6640625 C65.92761719 17.62965088 65.61695313 18.59523926 65.296875 19.59008789 C64.80960938 21.09236938 64.80960938 21.09236938 64.3125 22.625 C63.61060367 24.80336176 62.90878317 26.98174796 62.20703125 29.16015625 C61.84689941 30.27535645 61.48676758 31.39055664 61.11572266 32.53955078 C59.23352699 38.37724035 57.36758931 44.22012479 55.5 50.0625 C54.82299013 52.17840892 54.14591373 54.29429656 53.46875 56.41015625 C53.18451172 57.29840088 52.90027344 58.18664551 52.60742188 59.10180664 C52.40697266 59.72821045 52.20652344 60.35461426 52 61 C48.35423531 61 47.60453689 60.20025251 44.78125 57.9921875 C43.94086182 57.34209717 43.10047363 56.69200684 42.23461914 56.0222168 C41.33219482 55.31363525 40.42977051 54.60505371 39.5 53.875 C37.59350043 52.39837966 35.68592597 50.92314622 33.77734375 49.44921875 C32.8116748 48.7020459 31.84600586 47.95487305 30.85107422 47.18505859 C26.6353912 43.95416606 22.35284334 40.81816015 18.0625 37.6875 C10.23658507 31.96126053 2.57422346 26.05443637 -5 20 C-3.65232077 13.26160383 -1.77061721 6.63981453 0 0 Z " fill="#FDFDFD" transform="translate(105,179)"/>
<path d="M0 0 C23.43 0 46.86 0 71 0 C75 15 75 15 76 20 C69.9861862 24.88289749 63.88424898 29.61900173 57.671875 34.24609375 C53.83327914 37.11407323 50.02840835 40.02579342 46.22143555 42.93554688 C41.82019191 46.2981387 37.41080434 49.64996464 33 53 C32.3488623 53.49612793 31.69772461 53.99225586 31.02685547 54.50341797 C29.4821458 55.67676521 27.92908186 56.83909464 26.375 58 C25.57835937 58.598125 24.78171875 59.19625 23.9609375 59.8125 C22 61 22 61 19 61 C18.80621262 60.39136108 18.61242523 59.78272217 18.4127655 59.15563965 C16.38724436 52.7953602 14.3588651 46.4359973 12.32885742 40.07714844 C11.57259646 37.7069376 10.81705355 35.33649753 10.06225586 32.96582031 C8.97440302 29.5495178 7.88393235 26.13406021 6.79296875 22.71875 C6.45847214 21.66635132 6.12397552 20.61395264 5.77934265 19.52966309 C4.37075528 15.12737053 2.93902185 10.76344543 1.26293945 6.45507812 C0 3 0 3 0 0 Z " fill="#FDFDFD" transform="translate(254,179)"/>
<path d="M0 0 C14.62633692 -0.87369712 27.02371175 3.71673876 38.1875 13.125 C49.68719375 24.09534277 56.05567475 37.82877447 56.5625 53.6875 C55.93282312 69.87189763 48.64338573 83.95950803 37 95 C23.19923355 106.65695807 7.43424133 108.42620536 -10 107 C-23.35291718 104.69671392 -35.16347665 94.61132345 -43 84 C-51.95113837 68.78690646 -53.94285865 54.50423878 -49.65625 37.45703125 C-49.4396875 36.64621094 -49.223125 35.83539063 -49 35 C-47.02 34.505 -47.02 34.505 -45 34 C-44.33673247 36.57937374 -43.8974433 38.51462392 -44.453125 41.14453125 C-47.10677365 55.00036812 -44.92828425 68.76883183 -37.75 80.875 C-30.93082303 90.80821973 -20.38380269 98.3524531 -8.37109375 100.75 C6.16530126 102.28266768 19.0807759 100.56218707 31.4296875 92.1015625 C40.73461383 84.49358322 45.27414567 75.17756298 49 64 C49.99585073 47.31541897 48.26318757 33.21294946 37 20 C26.69271601 10.46853309 14.73658488 6.4844374 1 5 C0.505 2.525 0.505 2.525 0 0 Z " fill="#96BDE4" transform="translate(307,306)"/>
<path d="M0 0 C0.85529297 -0.00773438 1.71058594 -0.01546875 2.59179688 -0.0234375 C16.8779735 0.02015114 29.75443756 6.05974147 39.94921875 15.9375 C51.74907153 28.84972338 54.89460009 42.90782088 54.23730469 59.85107422 C53.18358566 74.31174897 45.17609724 86.38226935 35 96.25 C32.37073363 97.60704071 30.8266315 97.09459574 28.0625 96.25 C28.58931845 92.32908891 30.20666695 91.02092384 33.25 88.625 C42.52631814 80.62969722 47.29278805 69.61305007 48.41015625 57.47265625 C48.59339523 49.62524791 47.80350471 42.61496048 45.0625 35.25 C44.80726563 34.55648437 44.55203125 33.86296875 44.2890625 33.1484375 C39.00620136 20.9833169 28.02132844 13.24292343 16.30078125 8.01171875 C5.75174905 4.42173397 -7.70440219 4.90776562 -17.9375 9.25 C-30.54487675 16.17235275 -39.58534288 24.63422716 -44.4375 38.5 C-47.94505576 51.68085976 -46.64382722 63.95520801 -40.9375 76.25 C-36.92045605 83.0739324 -32.1922468 88.42863268 -25.9375 93.25 C-26.2675 94.57 -26.5975 95.89 -26.9375 97.25 C-31.85905321 96.82815258 -33.70554142 94.86671555 -36.9375 91.25 C-37.49695313 90.66992188 -38.05640625 90.08984375 -38.6328125 89.4921875 C-48.07270807 79.39844635 -52.52629021 67.13819838 -52.375 53.4375 C-52.36670166 52.46772217 -52.35840332 51.49794434 -52.34985352 50.4987793 C-52.01883528 36.44405117 -46.77433797 25.13299524 -37.0625 14.9375 C-26.44264386 4.91334179 -14.54985855 -0.13098147 0 0 Z " fill="#B8BFC9" transform="translate(213.9375,12.75)"/>
<path d="M0 0 C-0.33 1.65 -0.66 3.3 -1 5 C-1.76183594 5.10957031 -2.52367187 5.21914063 -3.30859375 5.33203125 C-14.34266308 7.02640145 -22.64578949 9.84634829 -32 16 C-32.886875 16.5775 -33.77375 17.155 -34.6875 17.75 C-43.7359999 26.55394585 -49.0413994 37.74420703 -49.59204102 50.33666992 C-49.77572796 64.83161075 -46.07263417 77.13802823 -36 88 C-29.40691415 93.9327768 -22.4955791 97.56285656 -14 100 C-13.40316406 100.19207031 -12.80632812 100.38414062 -12.19140625 100.58203125 C0.23174466 102.95150923 12.87021368 100.99177596 23.70703125 94.56640625 C36.05078103 86.13396389 42.94059779 75.61907532 46 61 C46.91021456 52.2505625 45.42889846 43.62442286 44 35 C45.32 34.67 46.64 34.34 48 34 C53.63867923 42.45801884 52.94386361 54.39861271 51.3125 64.0625 C48.97881496 74.04548602 44.79732445 82.35856337 38 90 C37.50113281 90.60328125 37.00226563 91.2065625 36.48828125 91.828125 C27.03451101 102.40110733 13.86733261 106.97615978 0.09765625 108.2734375 C-14.10968133 108.80340992 -27.66316646 103.33374594 -38.25 94 C-49.57412719 83.41559402 -55.80695022 68.68624376 -56.625 53.25 C-56.09129244 37.4344659 -49.0702484 23.67523313 -37.875 12.75 C-26.78685473 3.41059168 -14.30672595 -0.47338431 0 0 Z " fill="#F0D886" transform="translate(123,306)"/>
<path d="M0 0 C10.21364167 8.90838395 16.90335274 20.34392116 19.44238281 33.74707031 C20.41164669 50.29911507 17.6019795 64.33983848 7.10253906 77.73144531 C-3.21771811 88.96733432 -16.98373972 95.42775189 -32.16870117 96.07470703 C-43.76475554 96.33921433 -54.29009651 93.90316571 -63.98339844 87.30957031 C-65.80814405 85.49840842 -66.18419792 84.25817961 -66.55761719 81.74707031 C-64.79199219 81.10644531 -64.79199219 81.10644531 -62.55761719 80.74707031 C-60.69824219 81.63769531 -60.69824219 81.63769531 -58.80761719 82.99707031 C-48.77495998 89.71037254 -37.30783028 91.15019792 -25.46386719 89.25097656 C-12.54894651 86.30517636 -1.47887805 80.35629799 5.75488281 68.93457031 C12.0524586 57.59893389 15.48738561 45.29412141 12.72363281 32.39160156 C8.50397484 17.87801992 1.52884198 7.51414402 -11.55761719 -0.25292969 C-17.0788651 -2.9765259 -22.38049179 -4.82692104 -28.55761719 -5.25292969 C-29.41742188 -5.31609375 -30.27722656 -5.37925781 -31.16308594 -5.44433594 C-43.28354988 -5.94068255 -54.01265341 -2.72468628 -63.55761719 4.74707031 C-64.42386719 5.32457031 -65.29011719 5.90207031 -66.18261719 6.49707031 C-72.99560192 12.9514769 -77.02208221 21.17706388 -80.55761719 29.74707031 C-82.20761719 29.41707031 -83.85761719 29.08707031 -85.55761719 28.74707031 C-83.55924149 16.27993099 -75.27748653 6.10193628 -65.62011719 -1.56542969 C-46.02548519 -15.28944773 -19.02117558 -15.30041898 0 0 Z " fill="#E48784" transform="translate(398.5576171875,134.2529296875)"/>
<path d="M0 0 C8.29814119 6.34725369 14.95408637 14.81913098 18.359375 24.8046875 C18.484375 28.1171875 18.484375 28.1171875 18.359375 30.8046875 C17.039375 30.8046875 15.719375 30.8046875 14.359375 30.8046875 C13.83988281 29.71929687 13.32039063 28.63390625 12.78515625 27.515625 C12.08116652 26.07009942 11.37671475 24.6247988 10.671875 23.1796875 C10.33220703 22.46683594 9.99253906 21.75398438 9.64257812 21.01953125 C3.98457597 9.49201284 -5.49370194 1.97233869 -17.640625 -2.1953125 C-32.36648004 -6.51917933 -44.58262517 -4.14511191 -57.828125 2.9921875 C-67.00740948 8.58061199 -72.60010597 15.93296488 -76.640625 25.8046875 C-76.9603125 26.58457031 -77.28 27.36445313 -77.609375 28.16796875 C-82.07745541 40.80684436 -79.86326251 53.36927678 -74.5078125 65.3359375 C-67.78319164 78.33984009 -56.59923783 85.9635913 -42.81640625 90.390625 C-29.67213694 92.89204789 -16.66071698 89.93683983 -5.54296875 82.66015625 C-3.16751797 81.59193506 -2.0418808 81.93296212 0.359375 82.8046875 C-0.01315123 85.31125688 -0.28974233 86.50258608 -2.2421875 88.18359375 C-15.63155395 96.01559768 -29.2104616 98.8981887 -44.609375 96.3046875 C-47.05199587 95.62446397 -49.31054353 94.80214005 -51.640625 93.8046875 C-52.45660156 93.47597656 -53.27257813 93.14726562 -54.11328125 92.80859375 C-67.67619975 86.7503504 -78.18579708 74.48437315 -83.640625 60.8046875 C-87.77833395 48.3484595 -86.99416176 33.66973605 -81.640625 21.8046875 C-81.03927734 20.42216797 -81.03927734 20.42216797 -80.42578125 19.01171875 C-74.31464831 6.45289771 -64.23763425 -1.62660942 -51.640625 -7.1953125 C-50.84398437 -7.55496094 -50.04734375 -7.91460937 -49.2265625 -8.28515625 C-32.76600522 -14.4225118 -13.96494844 -9.62672482 0 0 Z " fill="#99CAA4" transform="translate(97.640625,133.1953125)"/>
<path d="M0 0 C4.93557297 2.08390859 7.68545935 5.63382683 10.25 10.25 C12.03588967 16.79826212 11.53777016 22.33710634 8.21484375 28.2734375 C6.03135631 31.37665759 3.35650773 33.32174614 0 35 C-1.98828125 35.203125 -1.98828125 35.203125 -4.3125 35.25 C-5.07175781 35.27578125 -5.83101563 35.3015625 -6.61328125 35.328125 C-9 35 -9 35 -14 32 C-14.33 36.95 -14.66 41.9 -15 47 C-17.64 47 -20.28 47 -23 47 C-23 31.82 -23 16.64 -23 1 C-20.36 1 -17.72 1 -15 1 C-14.67 1.66 -14.34 2.32 -14 3 C-13.360625 2.505 -12.72125 2.01 -12.0625 1.5 C-7.94276851 -0.51782767 -4.51196427 -0.59995153 0 0 Z " fill="#F1FAFD" transform="translate(317,338)"/>
<path d="M0 0 C5.67458259 1.89152753 9.32628019 5.65256038 12 11 C13.02162727 22.97481149 13.02162727 22.97481149 10.5 28.0625 C6.66812746 32.56495023 3.12370655 34.57021342 -2.75390625 35.37890625 C-8.69354828 35.62942176 -12.37738358 35.04478937 -17 31 C-17.5775 30.54625 -18.155 30.0925 -18.75 29.625 C-22.65770695 24.54498096 -22.62864774 18.11684231 -22 12 C-18.40595202 1.41752538 -10.1851386 -0.77903326 0 0 Z " fill="#F4FDF6" transform="translate(70,159)"/>
<path d="M0 0 C2.375 1.6875 2.375 1.6875 3.375 4.6875 C2.385 6.1725 2.385 6.1725 1.375 7.6875 C0.570625 7.3575 -0.23375 7.0275 -1.0625 6.6875 C-5.36304795 5.48032865 -9.19466181 5.51028647 -13.625 5.6875 C-13.955 7.0075 -14.285 8.3275 -14.625 9.6875 C-13.47 10.120625 -12.315 10.55375 -11.125 11 C-10.39925781 11.27457031 -9.67351562 11.54914063 -8.92578125 11.83203125 C-7.4294902 12.38837716 -5.92699495 12.9284044 -4.41796875 13.44921875 C2.08397684 15.72912175 2.08397684 15.72912175 4.375 18.6875 C5.06363568 21.75192875 4.96906659 24.60915492 4.375 27.6875 C2.19340855 30.44319447 0.50322506 32.12338747 -2.625 33.6875 C-10.61015647 34.31926984 -17.09920844 34.65953167 -23.625 29.6875 C-22.965 28.0375 -22.305 26.3875 -21.625 24.6875 C-18.625 24.6875 -18.625 24.6875 -16.765625 25.6796875 C-14.14459118 26.91367787 -12.25596416 26.88831485 -9.375 26.8125 C-8.03695313 26.78542969 -8.03695313 26.78542969 -6.671875 26.7578125 C-5.99640625 26.73460937 -5.3209375 26.71140625 -4.625 26.6875 C-4.295 25.0375 -3.965 23.3875 -3.625 21.6875 C-4.50542969 21.44515625 -5.38585937 21.2028125 -6.29296875 20.953125 C-8.03513672 20.45039063 -8.03513672 20.45039063 -9.8125 19.9375 C-10.96105469 19.61265625 -12.10960937 19.2878125 -13.29296875 18.953125 C-17.307983 17.42807856 -20.65366237 15.63017526 -22.625 11.6875 C-23.02703796 8.73922163 -23.17442715 6.60604037 -21.61328125 3.99609375 C-16.16408399 -2.79494787 -7.83178902 -2.83564775 0 0 Z " fill="#FEF2F1" transform="translate(373.625,160.3125)"/>
<path d="M0 0 C2.92612619 1.82205543 5.43486248 3.86972495 7 7 C7.37198088 12.57971317 7.20267163 16.19599256 4 21 C0.85350943 23.38699285 -2.14113846 23.47251366 -6 23 C-9.91152722 20.59974466 -11.8355781 18.44597451 -13 14 C-13.51247817 9.98558768 -13.18199377 8.32633365 -11.1875 4.75 C-7.76963173 0.45325132 -5.41436975 -0.74314879 0 0 Z " fill="#92CC9F" transform="translate(68,165)"/>
<path d="M0 0 C2.86942113 2.26533247 3.83907612 3.51722837 5 7 C5.34578461 12.35966151 5.45162946 15.61908568 2 20 C-0.29986731 21.14993366 -1.81469088 21.2316929 -4.375 21.3125 C-5.53128906 21.36857422 -5.53128906 21.36857422 -6.7109375 21.42578125 C-9.98501173 20.81678109 -11.05842424 19.68266829 -13 17 C-13.85903539 12.26972721 -13.74790206 7.74432531 -13 3 C-9.0610791 -1.51534835 -5.60527632 -1.66082261 0 0 Z " fill="#8CB8E6" transform="translate(315,345)"/>
<path d="M0 0 C0 2.31 0 4.62 0 7 C-2.01822917 7.45572917 -4.03645833 7.91145833 -6.0546875 8.3671875 C-8.20719964 8.90474428 -8.20719964 8.90474428 -10 11 C-10.37095708 13.42246595 -10.37095708 13.42246595 -10.4140625 16.2265625 C-10.45273438 17.2578125 -10.49140625 18.2890625 -10.53125 19.3515625 C-10.57765625 20.97191406 -10.57765625 20.97191406 -10.625 22.625 C-10.66367188 23.71296875 -10.70234375 24.8009375 -10.7421875 25.921875 C-10.83666247 28.61441165 -10.92222431 31.30693757 -11 34 C-13.31 34 -15.62 34 -18 34 C-18 23.11 -18 12.22 -18 1 C-15.69 1 -13.38 1 -11 1 C-10.67 1.99 -10.34 2.98 -10 4 C-8.63875 3.01 -8.63875 3.01 -7.25 2 C-4 0 -4 0 0 0 Z " fill="#FEFEEE" transform="translate(131,343)"/>
<path d="M0 0 C2.64 0 5.28 0 8 0 C8 11.22 8 22.44 8 34 C5.36 34 2.72 34 0 34 C0 22.78 0 11.56 0 0 Z " fill="#F6F8FA" transform="translate(211,56)"/>
<path d="M0 0 C0.69738281 0.00451172 1.39476562 0.00902344 2.11328125 0.01367188 C3.82555803 0.0253998 5.53779033 0.04333347 7.25 0.0625 C7.25 0.3925 7.25 0.7225 7.25 1.0625 C3.62 1.0625 -0.01 1.0625 -3.75 1.0625 C-3.42 1.7225 -3.09 2.3825 -2.75 3.0625 C-0.85466658 3.52773063 -0.85466658 3.52773063 1.3125 3.6875 C2.611875 3.81125 3.91125 3.935 5.25 4.0625 C5.25 4.3925 5.25 4.7225 5.25 5.0625 C3.67412109 5.24425781 3.67412109 5.24425781 2.06640625 5.4296875 C-5.31126606 6.30271206 -12.5300756 7.2575189 -19.75 9.0625 C-20.08 8.0725 -20.41 7.0825 -20.75 6.0625 C-22.07 6.3925 -23.39 6.7225 -24.75 7.0625 C-22.37211418 4.2714078 -20.32111188 3.39775167 -16.8125 2.4375 C-15.95785156 2.19773437 -15.10320312 1.95796875 -14.22265625 1.7109375 C-13.40667969 1.49695313 -12.59070313 1.28296875 -11.75 1.0625 C-10.84314453 0.77439453 -10.84314453 0.77439453 -9.91796875 0.48046875 C-6.62578073 -0.15424137 -3.33807997 -0.04101611 0 0 Z " fill="#E1938F" transform="translate(363.75,122.9375)"/>
<path d="M0 0 C1.32 0.33 2.64 0.66 4 1 C4 1.66 4 2.32 4 3 C4.99 3 5.98 3 7 3 C7 3.66 7 4.32 7 5 C8.2684375 5.4021875 8.2684375 5.4021875 9.5625 5.8125 C13 7 13 7 16.11328125 8.5546875 C20.57815744 10.48220578 24.82688246 10.40621323 29.625 10.3125 C30.45773437 10.31572266 31.29046875 10.31894531 32.1484375 10.32226562 C36.56916256 10.28354908 39.96003432 9.97089915 44 8 C45.65919896 7.63128912 47.3247643 7.28718326 49 7 C49 6.34 49 5.68 49 5 C50.32 5.33 51.64 5.66 53 6 C51.08588443 6.98414433 49.1686033 7.96213349 47.25 8.9375 C46.18265625 9.48277344 45.1153125 10.02804688 44.015625 10.58984375 C36.27716805 14.20847452 26.33464868 14.23324111 18.04296875 12.31640625 C11.35756748 9.77911223 4.01772602 6.02658903 0 0 Z " fill="#DD928E" transform="translate(335,203)"/>
<path d="M0 0 C0.66 0.33 1.32 0.66 2 1 C0.9171875 2.485 0.9171875 2.485 -0.1875 4 C-7.5191326 15.8562973 -10.06117949 29.84058357 -7.08984375 43.4296875 C-6.16779233 47.31949926 -5.11655579 51.16183948 -4 55 C-4.66 55 -5.32 55 -6 55 C-12.54894217 43.04233327 -11.96402796 26.2450012 -8.25 13.4375 C-6.66518168 9.18883813 -4.95790354 5.45088747 -2 2 C-1.34 2 -0.68 2 0 2 C0 1.34 0 0.68 0 0 Z " fill="#FEFADC" transform="translate(76,327)"/>
<path d="M0 0 C0.99 0.33 1.98 0.66 3 1 C-7.18419067 9.72571398 -16.86827617 14.1756757 -30.3125 14.1875 C-31.03373047 14.19974609 -31.75496094 14.21199219 -32.49804688 14.22460938 C-37.64395477 14.23845487 -42.0513815 13.41468981 -47 12 C-47 11.67 -47 11.34 -47 11 C-45.83597656 11.02356567 -45.83597656 11.02356567 -44.6484375 11.04760742 C-41.09903381 11.11034673 -37.54974724 11.14911447 -34 11.1875 C-32.77925781 11.21263672 -31.55851562 11.23777344 -30.30078125 11.26367188 C-23.40650746 11.31957139 -18.26848965 10.89769804 -12 8 C-10.34327363 7.62033354 -8.67929755 7.26239024 -7 7 C-7 6.34 -7 5.68 -7 5 C-6.01 5 -5.02 5 -4 5 C-3.67 4.01 -3.34 3.02 -3 2 C-2.01 2 -1.02 2 0 2 C0 1.34 0 0.68 0 0 Z " fill="#FEFBDC" transform="translate(152,394)"/>
<path d="M0 0 C1.051875 0.70576172 1.051875 0.70576172 2.125 1.42578125 C13.55116364 8.92420114 23.85033045 12.88933243 37.609375 10.328125 C40.75456407 9.60019915 43.88113121 8.8330206 47 8 C42.34868418 13.11956909 38.01973233 13.66599892 31.3203125 14.22265625 C20.00742184 14.59120651 9.7899037 10.94302293 1.21484375 3.4375 C0 2 0 2 0 0 Z " fill="#FEFCE1" transform="translate(92,388)"/>
<path d="M0 0 C0.33 1.32 0.66 2.64 1 4 C-0.39176632 4.96423026 -1.7886223 5.92111602 -3.1875 6.875 C-3.96480469 7.40867188 -4.74210937 7.94234375 -5.54296875 8.4921875 C-7.99154501 9.99481141 -10.26352772 11.12616852 -13 12 C-13.66 11.67 -14.32 11.34 -15 11 C-14.61932203 8.38070828 -14.21295682 7.20808367 -12.29296875 5.33203125 C-11.59816406 4.83058594 -10.90335937 4.32914063 -10.1875 3.8125 C-9.15689453 3.04873047 -9.15689453 3.04873047 -8.10546875 2.26953125 C-5.39558667 0.63555783 -3.15152627 0 0 0 Z " fill="#E4807E" transform="translate(343,129)"/>
<path d="M0 0 C0.45375 0.474375 0.9075 0.94875 1.375 1.4375 C2.93258204 3.09027808 2.93258204 3.09027808 5 4 C3.26017005 9.81261371 1.1889511 14.83169994 -2 20 C-2.33 18.68 -2.66 17.36 -3 16 C-3.66 16 -4.32 16 -5 16 C-5.66 17.32 -6.32 18.64 -7 20 C-7.66 19.67 -8.32 19.34 -9 19 C-8.68546875 18.55011719 -8.3709375 18.10023438 -8.046875 17.63671875 C-4.33936936 12.0642931 -2.08636551 6.34068624 0 0 Z " fill="#E38F8C" transform="translate(411,187)"/>
<path d="M0 0 C3.65564909 0.68761019 6.51867272 2.25449545 9.75 4.0625 C10.73484375 4.61035156 11.7196875 5.15820312 12.734375 5.72265625 C13.48203125 6.14417969 14.2296875 6.56570312 15 7 C14.34 8.32 13.68 9.64 13 11 C6.94462479 10.69723124 3.48516542 7.72245962 -1 4 C-0.67 2.68 -0.34 1.36 0 0 Z " fill="#E4817F" transform="translate(333,215)"/>
<path d="M0 0 C6.39969165 0.2723273 11.24234087 2.66308623 16 7 C16 7.99 16 8.98 16 10 C9.02013687 9.68978386 3.92708478 6.5048042 -2 3 C-1.34 2.01 -0.68 1.02 0 0 Z " fill="#E57E7E" transform="translate(383,128)"/>
<path d="M0 0 C0.66 0.66 1.32 1.32 2 2 C1.113125 1.835 0.22625 1.67 -0.6875 1.5 C-12.81554363 -0.1974341 -23.5397864 0.59578759 -34 7 C-34.66 7 -35.32 7 -36 7 C-36.20625 7.5775 -36.4125 8.155 -36.625 8.75 C-38.49750888 11.81410544 -40.96958519 13.15539968 -44 15 C-41.07647934 8.26704333 -34.60502581 3.75470413 -28.0625 0.77734375 C-18.68059236 -2.75864038 -9.53437944 -3.01085666 0 0 Z " fill="#96BADE" transform="translate(321,321)"/>
<path d="M0 0 C2.0625 0.4375 2.0625 0.4375 4 1 C7.46989475 11.30641358 7.98817971 21.31353407 6 32 C5.67 32 5.34 32 5 32 C4.97494385 31.39526855 4.9498877 30.79053711 4.92407227 30.16748047 C4.80736994 27.4031438 4.68498266 24.63908634 4.5625 21.875 C4.52318359 20.92367188 4.48386719 19.97234375 4.44335938 18.9921875 C4.22946977 14.25371013 3.93438179 9.66405699 3 5 C2.67 8.3 2.34 11.6 2 15 C1.67 15 1.34 15 1 15 C0.63911385 12.68853911 0.28645809 10.37579171 -0.0625 8.0625 C-0.25972656 6.77472656 -0.45695313 5.48695313 -0.66015625 4.16015625 C-0.82837891 2.59587891 -0.82837891 2.59587891 -1 1 C-0.67 0.67 -0.34 0.34 0 0 Z " fill="#EED88E" transform="translate(168,340)"/>
<path d="M0 0 C0.33 0 0.66 0 1 0 C1.61243356 13.40549017 0.78251508 24.42623209 -8.25 35.15234375 C-10.33536928 37.35408409 -12.51134127 39.26548028 -15 41 C-14.41685543 37.47780679 -13.16056026 35.83851658 -10.6875 33.3125 C-6.96577534 29.22470407 -4.94270019 25.12836022 -3 20 C-2.64808594 19.2471875 -2.29617187 18.494375 -1.93359375 17.71875 C-0.73651606 14.23269949 -0.5426141 10.83659866 -0.375 7.1875 C-0.33632812 6.49462891 -0.29765625 5.80175781 -0.2578125 5.08789062 C-0.16426432 3.39232985 -0.08107636 1.69620288 0 0 Z " fill="#EFD98D" transform="translate(160,351)"/>
<path d="M0 0 C0.66 0 1.32 0 2 0 C2.66 6.93 3.32 13.86 4 21 C1 21 1 21 -1 20 C-1.02689449 17.04160645 -1.04678741 14.08345573 -1.0625 11.125 C-1.07087891 10.28324219 -1.07925781 9.44148438 -1.08789062 8.57421875 C-1.09111328 7.76855469 -1.09433594 6.96289062 -1.09765625 6.1328125 C-1.10289307 5.38918457 -1.10812988 4.64555664 -1.11352539 3.87939453 C-1 2 -1 2 0 0 Z " fill="#F1D476" transform="translate(70,354)"/>
<path d="M0 0 C2.5 0.25 2.5 0.25 4.5 2.25 C4.6875 5.3125 4.6875 5.3125 4.5 8.25 C3.5 9.25 3.5 9.25 0.5625 9.4375 C-2.5 9.25 -2.5 9.25 -4.5 7.25 C-4.75 4.75 -4.75 4.75 -4.5 2.25 C-2.5 0.25 -2.5 0.25 0 0 Z " fill="#F4F8FB" transform="translate(214.5,41.75)"/>
<path d="M0 0 C3.94827146 0.03153571 7.12913861 0.67637738 10.8125 2.1875 C10.8125 3.1775 10.8125 4.1675 10.8125 5.1875 C6.0625 3.3125 6.0625 3.3125 3.8125 2.1875 C2.43907169 2.1185528 1.06247898 2.10282292 -0.3125 2.125 C-1.59125 2.145625 -2.87 2.16625 -4.1875 2.1875 C-4.1875 3.1775 -4.1875 4.1675 -4.1875 5.1875 C-3.424375 5.290625 -2.66125 5.39375 -1.875 5.5 C3.10690864 6.42883042 7.93887995 7.80866443 12.8125 9.1875 C12.4825 10.5075 12.1525 11.8275 11.8125 13.1875 C10.9153125 12.5378125 10.9153125 12.5378125 10 11.875 C6.18035658 9.85283583 2.4253259 8.93644477 -1.76171875 7.93359375 C-4.1875 7.1875 -4.1875 7.1875 -6.1875 5.1875 C-5.48879043 0.57601682 -4.50478407 0.03772851 0 0 Z " fill="#DE9491" transform="translate(364.1875,164.8125)"/>
<path d="M0 0 C0.33 0 0.66 0 1 0 C1.06058594 1.28777344 1.12117188 2.57554687 1.18359375 3.90234375 C1.26798247 5.58074159 1.3526313 7.25912636 1.4375 8.9375 C1.47681641 9.78763672 1.51613281 10.63777344 1.55664062 11.51367188 C1.59853516 12.32255859 1.64042969 13.13144531 1.68359375 13.96484375 C1.72025146 14.7137085 1.75690918 15.46257324 1.79467773 16.23413086 C1.81771063 18.02461326 1.81771063 18.02461326 3 19 C3.04092937 21.33297433 3.04241723 23.66705225 3 26 C3.66 26 4.32 26 5 26 C5.24234375 26.66386719 5.4846875 27.32773437 5.734375 28.01171875 C7.64740925 33.05182821 9.56716794 36.80431637 13 41 C12.67 41.99 12.34 42.98 12 44 C0.77558525 29.96139481 -0.78443788 17.32736119 0 0 Z " fill="#FEFADA" transform="translate(73,349)"/>
<path d="M0 0 C0 0.66 0 1.32 0 2 C-0.99 2.495 -0.99 2.495 -2 3 C0.31 3 2.62 3 5 3 C-0.01701369 8.01701369 -8.78206504 8.16011524 -15.56201172 8.20654297 C-18.71043745 8.17914091 -21.8532389 8.10782049 -25 8 C-25 7.67 -25 7.34 -25 7 C-18.73 6.67 -12.46 6.34 -6 6 C-6 5.34 -6 4.68 -6 4 C-7.65 4 -9.3 4 -11 4 C-11 3.34 -11 2.68 -11 2 C-9.5422647 1.664061 -8.08378894 1.33133376 -6.625 1 C-5.81289063 0.814375 -5.00078125 0.62875 -4.1640625 0.4375 C-2 0 -2 0 0 0 Z " fill="#DE9692" transform="translate(381,222)"/>
<path d="M0 0 C0.33 1.32 0.66 2.64 1 4 C1.66 4 2.32 4 3 4 C6.00099502 22.75621891 6.00099502 22.75621891 3 30 C2.01 30.33 1.02 30.66 0 31 C0.165 29.783125 0.33 28.56625 0.5 27.3125 C1.50711772 18.1765035 1.23309077 9.09404442 0 0 Z " fill="#FEFBDF" transform="translate(173,343)"/>
<path d="M0 0 C0 2.31 0 4.62 0 7 C-2.97 7.66 -5.94 8.32 -9 9 C-9 8.01 -9 7.02 -9 6 C-9.66 5.67 -10.32 5.34 -11 5 C-9.92570402 4.15504811 -8.84010798 3.32445142 -7.75 2.5 C-7.14671875 2.0359375 -6.5434375 1.571875 -5.921875 1.09375 C-4 0 -4 0 0 0 Z " fill="#FEFBDF" transform="translate(131,343)"/>
<path d="M0 0 C6.6 0 13.2 0 20 0 C20 0.66 20 1.32 20 2 C15.71702469 3.05619003 11.57014354 3.11702092 7.1875 3.0625 C6.49462891 3.05798828 5.80175781 3.05347656 5.08789062 3.04882812 C3.39188932 3.03713156 1.69593297 3.01919924 0 3 C0 2.01 0 1.02 0 0 Z " fill="#E98582" transform="translate(355,226)"/>
<path d="M0 0 C0.33 0.99 0.66 1.98 1 3 C0.34 3 -0.32 3 -1 3 C-1.33 3.99 -1.66 4.98 -2 6 C-3.84765625 7.16796875 -3.84765625 7.16796875 -6.0625 8.1875 C-6.79597656 8.53167969 -7.52945313 8.87585938 -8.28515625 9.23046875 C-8.85105469 9.48441406 -9.41695313 9.73835938 -10 10 C-10.33 8.02 -10.66 6.04 -11 4 C-7.31265242 1.54176828 -4.30300029 0.98757384 0 0 Z " fill="#EFD37A" transform="translate(101,311)"/>
<path d="M0 0 C0.66 0.33 1.32 0.66 2 1 C1.01 4.3 0.02 7.6 -1 11 C-2.65 10.67 -4.3 10.34 -6 10 C-5.44739574 6.68437443 -4.83174295 3.84937793 -3 1 C-2.01 0.67 -1.02 0.34 0 0 Z " fill="#E18281" transform="translate(319,153)"/>
<path d="M0 0 C5.12276731 7.68415097 9.33779844 18.01371928 7.54296875 27.38671875 C7.36378906 27.91910156 7.18460938 28.45148438 7 29 C6.34 29 5.68 29 5 29 C4.97421875 28.11699219 4.9484375 27.23398437 4.921875 26.32421875 C4.53556034 18.15015166 3.19134302 11.51295337 0 4 C-0.33 3.01 -0.66 2.02 -1 1 C-0.67 0.67 -0.34 0.34 0 0 Z " fill="#FEFADF" transform="translate(156,336)"/>
<path d="M0 0 C0.33 0.99 0.66 1.98 1 3 C0.54625 3.4125 0.0925 3.825 -0.375 4.25 C-2.0922331 5.91435498 -2.0922331 5.91435498 -2.9375 8.0625 C-4.28592317 10.52138931 -5.50358837 10.78745721 -8 12 C-8.78375 12.845625 -9.5675 13.69125 -10.375 14.5625 C-13.34764558 17.32281376 -15.02321445 17.72254985 -19 18 C-18.27941406 17.43152344 -17.55882812 16.86304688 -16.81640625 16.27734375 C-14.12558957 14.10155162 -11.5199006 11.8655064 -8.9375 9.5625 C-8.10089844 8.82128906 -7.26429688 8.08007812 -6.40234375 7.31640625 C-4.02230667 5.02150871 -2.00459696 2.62495722 0 0 Z " fill="#FDF9D7" transform="translate(165,390)"/>
<path d="M0 0 C5.00854803 0.02404103 7.78144353 1.52539772 11.875 4.3125 C11.215 4.9725 10.555 5.6325 9.875 6.3125 C9.235625 5.8175 8.59625 5.3225 7.9375 4.8125 C3.82183773 2.79666542 0.3843454 2.69543168 -4.125 3.3125 C-7.57846148 4.65996524 -7.57846148 4.65996524 -10.125 6.3125 C-10.125 5.3225 -10.125 4.3325 -10.125 3.3125 C-12.765 3.3125 -15.405 3.3125 -18.125 3.3125 C-18.125 2.9825 -18.125 2.6525 -18.125 2.3125 C-17.19816406 2.25191406 -16.27132813 2.19132812 -15.31640625 2.12890625 C-13.52009766 2.00322266 -13.52009766 2.00322266 -11.6875 1.875 C-9.89505859 1.75318359 -9.89505859 1.75318359 -8.06640625 1.62890625 C-4.90590372 1.28893187 -3.3011381 0.10630784 0 0 Z " fill="#9FC0E0" transform="translate(312.125,335.6875)"/>
<path d="M0 0 C2.475 0.99 2.475 0.99 5 2 C2.74684823 7.13217903 -0.26063522 10.9096916 -4 15 C-4 11.60406522 -3.47834052 10.93380119 -1.5 8.3125 C-1.0359375 7.68988281 -0.571875 7.06726563 -0.09375 6.42578125 C0.2671875 5.95527344 0.628125 5.48476563 1 5 C-0.65 6.32 -2.3 7.64 -4 9 C-4.66 8.67 -5.32 8.34 -6 8 C-4.02 5.36 -2.04 2.72 0 0 Z " fill="#9EC0E0" transform="translate(351,383)"/>
<path d="M0 0 C0 0.66 0 1.32 0 2 C-6.75 6 -6.75 6 -9 6 C-9.24492187 6.56203125 -9.48984375 7.1240625 -9.7421875 7.703125 C-11.22926539 10.41865854 -13.04062782 12.46391438 -15.125 14.75 C-16.21167969 15.94882813 -16.21167969 15.94882813 -17.3203125 17.171875 C-17.87460937 17.77515625 -18.42890625 18.3784375 -19 19 C-19 13.88515681 -15.38496214 10.61182027 -12 7 C-3.44444444 0 -3.44444444 0 0 0 Z " fill="#DE8E8C" transform="translate(349,140)"/>
<path d="M0 0 C0.33 0 0.66 0 1 0 C0.67 8.58 0.34 17.16 0 26 C-0.33 26 -0.66 26 -1 26 C-2.98291501 17.59244037 -3.0945242 8.12312602 0 0 Z " fill="#F0DC96" transform="translate(69,345)"/>
<path d="M0 0 C0.66 0 1.32 0 2 0 C5.73542561 7.00392302 5.93422153 13.7181513 4.25 21.4375 C2.88336714 24.23909737 1.34540877 25.9673124 -1 28 C-1.66 27.67 -2.32 27.34 -3 27 C-2.38125 26.278125 -1.7625 25.55625 -1.125 24.8125 C2.95633987 19.41072664 3.75909352 14.64481864 3 8 C2.19588401 5.19256613 1.17244205 2.68684637 0 0 Z " fill="#94B9DE" transform="translate(324,343)"/>
<path d="M0 0 C0 0.99 0 1.98 0 3 C1.05270463 4.15811388 1.05270463 4.15811388 3 5 C1.54462432 5.83848804 0.08559627 6.67063934 -1.375 7.5 C-2.59316406 8.19609375 -2.59316406 8.19609375 -3.8359375 8.90625 C-6 10 -6 10 -8 10 C-8 9.34 -8 8.68 -8 8 C-7.01 7.34 -6.02 6.68 -5 6 C-6.32 5.34 -7.64 4.68 -9 4 C-6.03 2.68 -3.06 1.36 0 0 Z " fill="#EFD98C" transform="translate(146,401)"/>
<path d="M0 0 C1.98 0.99 3.96 1.98 6 3 C8.37363241 3.39212446 8.37363241 3.39212446 10.625 3.25 C11.35976563 3.23453125 12.09453125 3.2190625 12.8515625 3.203125 C14.98823894 3.00111195 16.93627515 2.57896353 19 2 C18.67 2.99 18.34 3.98 18 5 C15.91695462 5.05418326 13.83350232 5.09287551 11.75 5.125 C10.00976562 5.15980469 10.00976562 5.15980469 8.234375 5.1953125 C5 5 5 5 1 3 C1 7.29 1 11.58 1 16 C0.67 16 0.34 16 0 16 C0 10.72 0 5.44 0 0 Z " fill="#99BADA" transform="translate(302,369)"/>
<path d="M0 0 C1.32 0.33 2.64 0.66 4 1 C-6.03179242 7.60918089 -14.35076812 7.69895391 -26 7 C-26 6.67 -26 6.34 -26 6 C-24.35451172 5.92652344 -24.35451172 5.92652344 -22.67578125 5.8515625 C-21.22133075 5.77649409 -19.76690484 5.70094803 -18.3125 5.625 C-17.2306543 5.57859375 -17.2306543 5.57859375 -16.12695312 5.53125 C-12.00306811 5.3052837 -8.79709408 4.76097117 -5 3 C-3.34080104 2.63128912 -1.6752357 2.28718326 0 2 C0 1.34 0 0.68 0 0 Z " fill="#E08784" transform="translate(384,208)"/>
<path d="M0 0 C3.02429405 1.04687102 3.9050646 1.82861661 5.484375 4.6796875 C5.90203125 5.73414063 6.3196875 6.78859375 6.75 7.875 C7.17796875 8.92429687 7.6059375 9.97359375 8.046875 11.0546875 C9 14 9 14 9 18 C8.34 18 7.68 18 7 18 C6.73445312 17.14535156 6.46890625 16.29070312 6.1953125 15.41015625 C5.84210938 14.30542969 5.48890625 13.20070313 5.125 12.0625 C4.77695313 10.96035156 4.42890625 9.85820312 4.0703125 8.72265625 C3.29975705 5.87121196 3.29975705 5.87121196 1 5 C0.375 2.4375 0.375 2.4375 0 0 Z " fill="#E6D597" transform="translate(151,333)"/>
<path d="M0 0 C0.556875 0.268125 1.11375 0.53625 1.6875 0.8125 C0.90375 1.245625 0.12 1.67875 -0.6875 2.125 C-3.52948375 3.70470247 -3.52948375 3.70470247 -5.3125 6.8125 C-5.78743298 9.86564059 -5.91270589 11.89023241 -4.19140625 14.53515625 C-2.95818776 16.01292231 -1.63990623 17.41872346 -0.3125 18.8125 C-2.6875 18.5 -2.6875 18.5 -5.3125 17.8125 C-8.13612083 13.57706876 -8.09518895 9.78534188 -7.3125 4.8125 C-3.70347744 -0.30028195 -3.70347744 -0.30028195 0 0 Z " fill="#E0938F" transform="translate(357.3125,159.1875)"/>
<path d="M0 0 C1.62789352 0.03792583 3.25428742 0.15512646 4.875 0.3125 C6.20144531 0.43044922 6.20144531 0.43044922 7.5546875 0.55078125 C10 1 10 1 13 3 C12.67 3.66 12.34 4.32 12 5 C10.68 4.34 9.36 3.68 8 3 C8 3.66 8 4.32 8 5 C6.35 5 4.7 5 3 5 C2.67 4.01 2.34 3.02 2 2 C1.01 1.67 0.02 1.34 -1 1 C-0.67 0.67 -0.34 0.34 0 0 Z " fill="#8AB6E4" transform="translate(321,309)"/>
<path d="M0 0 C0.66 0.33 1.32 0.66 2 1 C0.21479439 3.00611734 -1.57758712 5.0048717 -3.375 7 C-3.88289063 7.57234375 -4.39078125 8.1446875 -4.9140625 8.734375 C-6.23504905 10.19441277 -7.61400799 11.60152157 -9 13 C-9.66 13 -10.32 13 -11 13 C-8.52241061 7.42542386 -4.84184017 3.63138013 0 0 Z " fill="#FDFADD" transform="translate(92,320)"/>
<path d="M0 0 C0.33 0 0.66 0 1 0 C0.85851011 1.6045556 0.71164314 3.20863767 0.5625 4.8125 C0.48128906 5.70582031 0.40007812 6.59914063 0.31640625 7.51953125 C0 10 0 10 -1 13 C-1.22325814 15.05893621 -1.40705759 17.12233653 -1.5625 19.1875 C-1.64628906 20.27417969 -1.73007812 21.36085938 -1.81640625 22.48046875 C-1.87699219 23.31191406 -1.93757813 24.14335937 -2 25 C-2.33 25 -2.66 25 -3 25 C-3.55353075 8.29157175 -3.55353075 8.29157175 0 0 Z " fill="#9FC0E1" transform="translate(272,342)"/>
<path d="M0 0 C5.36327801 0.80331036 7.91230152 4.86232849 11 9 C12.4375 12 12.4375 12 13 14 C12.34 14 11.68 14 11 14 C9.5625 12.390625 9.5625 12.390625 8 10.25 C7.484375 9.55390625 6.96875 8.8578125 6.4375 8.140625 C5 6 5 6 4 3.796875 C3.06884833 1.64784921 3.06884833 1.64784921 0 1 C0 0.67 0 0.34 0 0 Z " fill="#DE938F" transform="translate(387,145)"/>
<path d="M0 0 C0.99 0.495 0.99 0.495 2 1 C2 1.99 2 2.98 2 4 C2.66 4 3.32 4 4 4 C4.33 5.65 4.66 7.3 5 9 C5.99 9.33 6.98 9.66 8 10 C9.1875 13.0625 9.1875 13.0625 10 16 C5.84016104 12.19671867 2.50143634 8.08802795 0 3 C0 2.01 0 1.02 0 0 Z " fill="#EDD990" transform="translate(84,373)"/>
<path d="M0 0 C0.33 0 0.66 0 1 0 C1.28100502 7.16562789 0.20443195 13.94546999 -1 21 C-1.33 21 -1.66 21 -2 21 C-2.3690205 6.21867882 -2.3690205 6.21867882 0 0 Z " fill="#DBF2E0" transform="translate(19,162)"/>
<path d="M0 0 C-0.8353125 0.37125 -0.8353125 0.37125 -1.6875 0.75 C-8.01519155 4.17037381 -9.88300649 7.31475735 -12 14 C-12.33 14 -12.66 14 -13 14 C-13.50432107 8.7046288 -12.28757779 6.13295494 -9 2 C-5.5647952 -0.29013653 -4.014669 -0.17842973 0 0 Z " fill="#AFD6B7" transform="translate(68,165)"/>
<path d="M0 0 C0.66 0 1.32 0 2 0 C0.55922954 3.36179774 -1.24750021 5.59156268 -4 8 C-4.66 8 -5.32 8 -6 8 C-6.66 9.32 -7.32 10.64 -8 12 C-8 8.24111186 -7.049166 7.58681685 -4.5625 4.875 C-3.92441406 4.17117188 -3.28632812 3.46734375 -2.62890625 2.7421875 C-1.76410115 1.81724008 -0.89538137 0.89538137 0 0 Z " fill="#EFD993" transform="translate(86,318)"/>
<path d="M0 0 C0 0.99 0 1.98 0 3 C-3.96 3 -7.92 3 -12 3 C-11.67 2.34 -11.34 1.68 -11 1 C-7.29882394 0.15882362 -3.78728969 -0.11139087 0 0 Z " fill="#F3D882" transform="translate(122,307)"/>
<path d="M0 0 C5.22477945 1.9351035 8.01636583 6.52454874 11 11 C10.625 13.1875 10.625 13.1875 10 15 C9.61328125 14.33613281 9.2265625 13.67226562 8.828125 12.98828125 C6.13078959 8.41482889 3.49047722 4.02747372 0 0 Z " fill="#DE918D" transform="translate(397,140)"/>
<path d="M0 0 C0.66 0 1.32 0 2 0 C0.59155282 3.21524305 -1.10344786 5.32183868 -3.625 7.75 C-4.57246094 8.67039063 -4.57246094 8.67039063 -5.5390625 9.609375 C-6.02117188 10.06828125 -6.50328125 10.5271875 -7 11 C-7.66 10.67 -8.32 10.34 -9 10 C-7.5484451 8.32742645 -6.08855591 6.66208242 -4.625 5 C-3.81289063 4.071875 -3.00078125 3.14375 -2.1640625 2.1875 C-1.44992188 1.465625 -0.73578125 0.74375 0 0 Z " fill="#E9F7ED" transform="translate(34,139)"/>
<path d="M0 0 C0.99 0 1.98 0 3 0 C3 0.66 3 1.32 3 2 C3.515625 2.2475 4.03125 2.495 4.5625 2.75 C7.77184151 4.39581616 10.87585664 6.1976096 14 8 C14 8.66 14 9.32 14 10 C8.97619887 8.43006215 4.9530017 5.39884258 1 2 C0.67 1.34 0.34 0.68 0 0 Z " fill="#9CBEDF" transform="translate(279,386)"/>
<path d="M0 0 C1.32 0.33 2.64 0.66 4 1 C2.56351736 2.12629875 1.12577415 3.2509899 -0.3125 4.375 C-1.11300781 5.00148438 -1.91351563 5.62796875 -2.73828125 6.2734375 C-4.44663212 7.57756718 -6.21172726 8.80781817 -8 10 C-8 9.01 -8 8.02 -8 7 C-7.34 7 -6.68 7 -6 7 C-5.67 6.01 -5.34 5.02 -5 4 C-4.34 4 -3.68 4 -3 4 C-3 3.34 -3 2.68 -3 2 C-2.01 2 -1.02 2 0 2 C0 1.34 0 0.68 0 0 Z " fill="#FEFBDE" transform="translate(88,314)"/>
<path d="M0 0 C0 0.66 0 1.32 0 2 C-0.99 2 -1.98 2 -3 2 C-3 2.66 -3 3.32 -3 4 C-1.35 4 0.3 4 2 4 C2 4.33 2 4.66 2 5 C-1.3 5.33 -4.6 5.66 -8 6 C-7.67 5.34 -7.34 4.68 -7 4 C-6.34 4 -5.68 4 -5 4 C-4.67 3.01 -4.34 2.02 -4 1 C-2 0 -2 0 0 0 Z " fill="#E68B87" transform="translate(386,220)"/>
<path d="M0 0 C-4 2.66666667 -8 5.33333333 -12 8 C-12 7.01 -12 6.02 -12 5 C-11.34 5 -10.68 5 -10 5 C-10 4.34 -10 3.68 -10 3 C-3.375 -1.125 -3.375 -1.125 0 0 Z " fill="#E6FBEB" transform="translate(40,130)"/>
<path d="M0 0 C-1.32 1.32 -2.64 2.64 -4 4 C-4.33 2.68 -4.66 1.36 -5 0 C-7.31 0 -9.62 0 -12 0 C-12 -0.33 -12 -0.66 -12 -1 C-7.31034294 -2.11658501 -4.46236469 -1.80619523 0 0 Z " fill="#EFDC96" transform="translate(125,344)"/>
<path d="M0 0 C2.8992226 0.46761655 3.86675182 0.86675182 6 3 C4.68 3.33 3.36 3.66 2 4 C2.99 5.485 2.99 5.485 4 7 C2.0625 6.25 2.0625 6.25 0 5 C-0.8125 2.9375 -0.8125 2.9375 -1 1 C-0.67 0.67 -0.34 0.34 0 0 Z " fill="#DA8887" transform="translate(333,215)"/>
<path d="M0 0 C0.33 0.66 0.66 1.32 1 2 C-1.31 4.64 -3.62 7.28 -6 10 C-6.66 9.67 -7.32 9.34 -8 9 C-5.36 6.03 -2.72 3.06 0 0 Z " fill="#A1CBAB" transform="translate(40,145)"/>
<path d="M0 0 C-3.63 2.31 -7.26 4.62 -11 7 C-10.67 5.68 -10.34 4.36 -10 3 C-9.01 3 -8.02 3 -7 3 C-7 2.34 -7 1.68 -7 1 C-3.375 -1.125 -3.375 -1.125 0 0 Z " fill="#FEE6E5" transform="translate(340,129)"/>
<path d="M0 0 C1.72880982 -0.05449838 3.45812712 -0.09301688 5.1875 -0.125 C6.15042969 -0.14820313 7.11335938 -0.17140625 8.10546875 -0.1953125 C11.12812778 0.0086456 13.26769985 0.73125368 16 2 C16 2.33 16 2.66 16 3 C14.00045254 3.04254356 11.99958364 3.04080783 10 3 C9.67 2.67 9.34 2.34 9 2 C7.48530552 1.76807135 5.96245438 1.58784762 4.4375 1.4375 C3.61121094 1.35371094 2.78492188 1.26992187 1.93359375 1.18359375 C1.29550781 1.12300781 0.65742188 1.06242188 0 1 C0 0.67 0 0.34 0 0 Z " fill="#FEE5E5" transform="translate(359,159)"/>
<path d="M0 0 C0 0.66 0 1.32 0 2 C-4.455 2.495 -4.455 2.495 -9 3 C-8.67 2.01 -8.34 1.02 -8 0 C-2.25 -1.125 -2.25 -1.125 0 0 Z " fill="#EB8D87" transform="translate(357,126)"/>
<path d="M0 0 C-1.9626228 2.04795423 -3.4277307 2.94976638 -6.26953125 3.19921875 C-8.51954383 3.18858877 -10.75385562 3.12958525 -13 3 C-3.70474138 -1.85237069 -3.70474138 -1.85237069 0 0 Z " fill="#FDF7D2" transform="translate(139,397)"/>
<path d="M0 0 C3.73487777 0.4979837 5.81237635 0.87491756 9 3 C9 3.66 9 4.32 9 5 C5.22454612 3.90931332 2.52956528 3.0916909 0 0 Z " fill="#FDF9D7" transform="translate(95,400)"/>
<path d="M0 0 C0.66 0 1.32 0 2 0 C3.49821059 3.37097383 4 5.20442119 4 9 C3.34 9 2.68 9 2 9 C1.34 6.03 0.68 3.06 0 0 Z " fill="#EFDA91" transform="translate(156,342)"/>
<path d="M0 0 C-3.63 1.98 -7.26 3.96 -11 6 C-9.89210592 2.67631776 -9.51563783 2.38436907 -6.625 0.75 C-6.01914062 0.39421875 -5.41328125 0.0384375 -4.7890625 -0.328125 C-3 -1 -3 -1 0 0 Z " fill="#E9FCED" transform="translate(50,140)"/>
<path d="M0 0 C2.25 0.125 2.25 0.125 5 1 C7.3125 4.0625 7.3125 4.0625 9 7 C5.18315774 5.44499019 2.80804268 2.96404505 0 0 Z " fill="#FEF8D1" transform="translate(86,393)"/>
<path d="M0 0 C0.66 0.33 1.32 0.66 2 1 C0.02 3.31 -1.96 5.62 -4 8 C-4.66 7.67 -5.32 7.34 -6 7 C-4.02 4.69 -2.04 2.38 0 0 Z " fill="#FCE8E5" transform="translate(332,140)"/>
<path d="M0 0 C2.64 0.33 5.28 0.66 8 1 C7.67 2.32 7.34 3.64 7 5 C3.535 3.02 3.535 3.02 0 1 C0 0.67 0 0.34 0 0 Z " fill="#E08D8C" transform="translate(369,173)"/>
</svg>
